<?xml version="1.0" encoding="UTF-8"?>
<!-- Generator: Adobe Illustrator 22.1.0, SVG Export Plug-In . SVG Version: 6.00 Build 0)  -->
<svg xmlns="http://www.w3.org/2000/svg" xmlns:xlink="http://www.w3.org/1999/xlink" id="Layer_1" x="0px" y="0px" width="1000px" height="1000px" viewBox="0 0 1000 1000" xml:space="preserve">
<g>
	<path fill="#757B9E" d="M399.23,82.86h-37.36c-9.93,0-17.97-8.05-17.97-17.98c0-9.92,8.04-17.97,17.97-17.97h37.36   c9.95,0,17.98,8.05,17.98,17.97C417.2,74.81,409.17,82.86,399.23,82.86 M601.99,614.2l14.58-41.82V71.77   c0-31.16-22.48-58.49-51.15-62.23C431.18-3.21,329.25-3.12,196.32,9.47c-29.31,3.81-51.77,31.12-51.77,62.3v648.28   c0,31.16,22.46,58.51,51.1,62.25c67.13,6.37,110.94,9.47,175.06,9.47c6.69,0,30.04-0.07,52.81-0.15   c-24.16-41.14-47.39-79.79-49.71-83.66l-46.76-74.73H193.73V124.36H567.4v447.47L601.99,614.2z"></path>
	<path fill="#69C6B9" d="M855.45,749.58l-0.7-151.93c-0.11-22.71,1.59-61.52-27.26-87.58L662.65,319.81l-1.2,256.98L617.15,703.8   l-158.4-194c-11.04-15.82-28.92-21.77-46.64-21.77h-0.03c-17.47,0-34.81,5.79-45.17,13.55c-29.96,22.44-35.02,62.78-18.31,85.86   l61.47,98.26c0,0,79.75,132.52,102.49,176.48c45.54,88.06,98.53,124.7,122.96,137.81C758.28,981.3,852.63,876.87,855.45,749.58"></path>
	<path fill="#757B9E" d="M272.25,410.01c11.78,0,21.32-9.54,21.32-21.32s-9.54-21.32-21.32-21.32c-11.78,0-21.32,9.54-21.32,21.32   S260.46,410.01,272.25,410.01"></path>
	<path fill="#757B9E" d="M272.25,463.27c11.78,0,21.32-9.54,21.32-21.32c0-11.78-9.54-21.32-21.32-21.32   c-11.78,0-21.32,9.54-21.32,21.32C250.92,453.73,260.46,463.27,272.25,463.27"></path>
	<path fill="#757B9E" d="M326.4,410.01c11.78,0,21.32-9.54,21.32-21.32s-9.54-21.32-21.32-21.32c-11.78,0-21.32,9.54-21.32,21.32   S314.62,410.01,326.4,410.01"></path>
	<path fill="#CCCECF" d="M434.72,410.01c11.78,0,21.32-9.54,21.32-21.32s-9.54-21.32-21.32-21.32c-11.78,0-21.32,9.54-21.32,21.32   S422.94,410.01,434.72,410.01"></path>
	<path fill="#CCCECF" d="M326.4,463.27c11.78,0,21.32-9.54,21.32-21.32c0-11.78-9.54-21.32-21.32-21.32   c-11.78,0-21.32,9.54-21.32,21.32C305.08,453.73,314.62,463.27,326.4,463.27"></path>
	<path fill="#CCCECF" d="M434.72,463.27c11.78,0,21.32-9.54,21.32-21.32c0-11.78-9.54-21.32-21.32-21.32   c-11.78,0-21.32,9.54-21.32,21.32C413.39,453.73,422.94,463.27,434.72,463.27"></path>
	<path fill="#757B9E" d="M380.56,410.01c11.78,0,21.32-9.54,21.32-21.32s-9.54-21.32-21.32-21.32c-11.78,0-21.32,9.54-21.32,21.32   S368.78,410.01,380.56,410.01"></path>
	<path fill="#CCCECF" d="M488.87,410.01c11.78,0,21.32-9.54,21.32-21.32s-9.54-21.32-21.32-21.32s-21.32,9.54-21.32,21.32   S477.09,410.01,488.87,410.01"></path>
	<path fill="#CCCECF" d="M380.56,463.27c11.78,0,21.32-9.54,21.32-21.32c0-11.78-9.54-21.32-21.32-21.32   c-11.78,0-21.32,9.54-21.32,21.32C359.24,453.73,368.78,463.27,380.56,463.27"></path>
	<path fill="#CCCECF" d="M488.87,463.27c11.78,0,21.32-9.54,21.32-21.32c0-11.78-9.54-21.32-21.32-21.32s-21.32,9.54-21.32,21.32   C467.55,453.73,477.09,463.27,488.87,463.27"></path>
	<path fill="#757B9E" d="M381.69,354.84c11.78,0,21.32-9.54,21.32-21.32c0-11.78-9.54-21.32-21.32-21.32   c-11.78,0-21.32,9.54-21.32,21.32C360.36,345.3,369.91,354.84,381.69,354.84"></path>
	<path fill="#CCCECF" d="M488.87,354.84c11.78,0,21.32-9.54,21.32-21.32c0-11.78-9.54-21.32-21.32-21.32s-21.32,9.54-21.32,21.32   C467.55,345.3,477.09,354.84,488.87,354.84"></path>
	<path fill="#CCCECF" d="M433.7,354.84c11.78,0,21.32-9.54,21.32-21.32c0-11.78-9.54-21.32-21.32-21.32   c-11.78,0-21.32,9.54-21.32,21.32C412.38,345.3,421.92,354.84,433.7,354.84"></path>
	<path fill="#757B9E" d="M434.34,299.67c11.78,0,21.32-9.54,21.32-21.32c0-11.78-9.54-21.32-21.32-21.32s-21.32,9.54-21.32,21.32   C413.02,290.13,422.56,299.67,434.34,299.67"></path>
	<path fill="#757B9E" d="M379.81,299.67c11.78,0,21.32-9.54,21.32-21.32c0-11.78-9.54-21.32-21.32-21.32   c-11.78,0-21.32,9.54-21.32,21.32C358.48,290.13,368.03,299.67,379.81,299.67"></path>
	<path fill="#757B9E" d="M488.87,299.67c11.78,0,21.32-9.54,21.32-21.32c0-11.78-9.54-21.32-21.32-21.32s-21.32,9.54-21.32,21.32   C467.55,290.13,477.09,299.67,488.87,299.67"></path>
	<path fill="#757B9E" d="M488.87,245.74c11.78,0,21.32-9.54,21.32-21.32s-9.54-21.32-21.32-21.32s-21.32,9.54-21.32,21.32   S477.09,245.74,488.87,245.74"></path>
</g>
</svg>
